<?xml version="1.0" ?><svg height="256px" style="enable-background:new 0 0 256 256;" version="1.1" viewBox="0 0 256 256" width="256px" xml:space="preserve" xmlns="http://www.w3.org/2000/svg" xmlns:xlink="http://www.w3.org/1999/xlink"><style type="text/css">
	.st0{fill:#938991;}
	.st1{fill:#D66D5D;}
	.st2{fill:#F2B462;}
	.st3{fill:#8BBDB1;}
	.st4{fill:#7996B1;}
	.st5{fill:none;stroke:#ED1C24;stroke-width:10;stroke-linecap:round;stroke-miterlimit:10;stroke-dasharray:60,25,0,0,0,0;}
	.st6{opacity:0.2;}
	.st7{fill:#231F20;}
	.st8{fill:#FFFFFF;}
	.st9{fill:#FDFDFD;}
</style><g id="background"><circle class="st1" cx="128" cy="128" r="120.335"/></g><g id="menu2"><g class="st6"><path class="st7" d="M163.465,86.338c-2.341,2.246-58.532,1.689-60.787,0s3.899-29.605,28.891-29.605    S165.806,84.092,163.465,86.338z"/><path class="st7" d="M182.026,149.821c1.509-0.994,23.148-0.558,24.333-1.777c1.185-1.219,0.085-9.757-0.752-10.735    c-0.837-0.978-22.502,0.46-23.924-1.021c-1.423-1.48-0.998-25.96,0.285-27.49c0.644-0.768,3.374-4.559,8.893-8.431    c5.52-3.872,10.437-3.878,11.331-4.603c0.894-0.725,0.85-11.952-0.444-12.523c-1.293-0.571-11.273,2.834-18.179,7.153    c-6.906,4.319-9.328,9.09-10.868,9.75c-1.54,0.66-81.448,0.503-82.502,0s-3.962-5.431-10.868-9.75    c-6.906-4.319-16.886-7.724-18.179-7.153c-1.293,0.571-1.338,12.398-0.444,13.123c0.894,0.725,5.811,0.331,11.331,4.203    c5.52,3.872,8.25,7.463,8.893,8.231c1.283,1.53,1.707,26.009,0.285,27.49c-1.423,1.48-23.087,0.042-23.924,1.021    c-0.837,0.978-1.938,9.516-0.752,10.735c1.185,1.219,22.825,0.783,24.333,1.777c0.79,0.52,0.511,7.343,2.052,13.944    c1.402,6.007,4.669,11.819,4.699,12.773c0.031,0.952-2.531,5.551-9.611,10.426c-7.08,4.874-12.249,4.23-13.391,5.685    c-1.142,1.455-1.063,10.688,0.347,11.831c1.409,1.143,11.363-0.56,19.278-5.695c7.914-5.135,10.399-11.833,11.553-11.788    c2.308,0.091,5.514,4.84,12.417,7.589c4.666,1.858,14.6,4.304,15.997,3.282c1.397-1.022-0.037-81.365,0.838-82.584    c0.434-0.605,12.36-0.605,12.794,0c0.875,1.219-0.559,81.563,0.838,82.584c1.397,1.022,11.332-1.424,15.997-3.282    c6.903-2.749,10.11-7.498,12.417-7.589c1.154-0.046,3.639,6.653,11.553,11.788c7.914,5.135,17.869,6.838,19.278,5.695    c1.409-1.143,1.489-10.376,0.347-11.831c-1.142-1.455-6.311-0.811-13.391-5.685c-7.08-4.875-9.642-9.473-9.611-10.426    c0.031-0.954,3.297-6.766,4.699-12.773C181.516,157.164,181.236,150.342,182.026,149.821z"/></g><path class="st8" d="M159.765,82.638c-2.341,2.246-58.532,1.689-60.787,0c-2.255-1.689,3.899-29.605,28.891-29.605   S162.106,80.392,159.765,82.638z"/><path class="st8" d="M178.326,146.121c1.509-0.994,23.148-0.558,24.333-1.777c1.185-1.219,0.085-9.757-0.752-10.735   c-0.837-0.978-22.502,0.46-23.924-1.021c-1.423-1.48-0.998-25.96,0.285-27.49c0.644-0.768,3.374-4.559,8.893-8.431   c5.52-3.872,10.437-3.878,11.331-4.603c0.894-0.725,0.85-11.952-0.444-12.523s-11.273,2.834-18.179,7.153   c-6.906,4.319-9.328,9.09-10.868,9.75c-1.54,0.66-81.448,0.503-82.502,0s-3.962-5.431-10.868-9.75   c-6.906-4.319-16.886-7.724-18.179-7.153s-1.338,12.398-0.444,13.123c0.894,0.725,5.811,0.331,11.331,4.203   c5.52,3.872,8.25,7.463,8.893,8.231c1.283,1.53,1.707,26.009,0.285,27.49c-1.423,1.48-23.087,0.042-23.924,1.021   c-0.837,0.978-1.938,9.516-0.752,10.735c1.185,1.219,22.825,0.783,24.333,1.777c0.79,0.52,0.511,7.343,2.052,13.944   c1.402,6.007,4.669,11.819,4.699,12.773c0.031,0.952-2.531,5.551-9.611,10.426c-7.08,4.874-12.249,4.23-13.391,5.685   c-1.142,1.455-1.063,10.688,0.347,11.831c1.409,1.143,11.363-0.56,19.278-5.695c7.914-5.135,10.399-11.833,11.553-11.788   c2.308,0.091,5.514,4.84,12.417,7.589c4.666,1.858,14.6,4.304,15.997,3.282c1.397-1.022-0.037-81.365,0.838-82.584   c0.434-0.605,12.36-0.605,12.794,0c0.875,1.219-0.559,81.563,0.838,82.584c1.397,1.022,11.332-1.424,15.997-3.282   c6.904-2.749,10.11-7.498,12.417-7.589c1.154-0.046,3.639,6.653,11.553,11.788c7.914,5.135,17.869,6.838,19.278,5.695   c1.409-1.143,1.489-10.376,0.347-11.831c-1.142-1.455-6.311-0.811-13.391-5.685c-7.08-4.875-9.642-9.473-9.611-10.426   c0.031-0.954,3.297-6.766,4.699-12.773C177.816,153.464,177.536,146.642,178.326,146.121z"/></g></svg>